<?xml version="1.0" standalone="no"?>
<!DOCTYPE svg PUBLIC "-//W3C//DTD SVG 20010904//EN"
 "http://www.w3.org/TR/2001/REC-SVG-20010904/DTD/svg10.dtd">
<svg version="1.0" xmlns="http://www.w3.org/2000/svg"
 width="500.000000pt" height="500.000000pt" viewBox="0 0 500.000000 500.000000"
 preserveAspectRatio="xMidYMid meet">

<g transform="translate(0.000000,500.000000) scale(0.100000,-0.100000)"
fill="#000000" stroke="none">
<path d="M0 2500 l0 -2500 2500 0 2500 0 0 2500 0 2500 -2500 0 -2500 0 0
-2500z m1674 1338 c-3 -13 -22 -56 -40 -97 -29 -63 -51 -91 -137 -175 -193
-188 -306 -365 -392 -611 l-42 -119 -31 30 c-17 17 -36 50 -43 73 -16 55 -5
97 61 237 94 201 244 399 397 526 80 66 211 158 226 158 5 0 5 -10 1 -22z
m1739 -30 c274 -184 489 -466 601 -786 19 -56 38 -124 42 -151 6 -48 6 -49
-32 -75 -21 -14 -44 -26 -51 -26 -7 0 -13 -6 -13 -12 -1 -7 -16 39 -35 102
-107 367 -299 637 -605 851 -47 33 -84 63 -83 66 2 7 96 72 106 72 4 1 36 -18
70 -41z m-413 -531 c0 -502 0 -503 -22 -547 -14 -27 -36 -50 -58 -62 -41 -21
-118 -24 -163 -4 -35 15 -77 51 -77 66 0 6 9 1 20 -10 71 -71 178 -41 200 55
5 22 10 257 10 523 l0 482 45 0 45 0 0 -503z m-1018 -709 l3 -273 190 191
c105 105 222 227 260 272 l70 81 50 0 c49 0 49 0 30 -17 -60 -50 -425 -385
-422 -388 1 -2 22 1 45 7 50 11 106 -1 144 -30 35 -28 78 -115 132 -264 49
-135 78 -201 104 -229 14 -17 12 -18 -32 -18 -85 0 -92 8 -163 213 -115 333
-184 374 -355 212 l-58 -54 0 -186 0 -185 -50 0 -50 0 0 470 0 470 50 0 50 0
2 -272z m2103 -325 c-17 -146 -102 -402 -149 -448 -11 -11 -53 -40 -140 -97
-42 -27 -72 -36 -61 -18 4 6 10 8 15 5 4 -3 7 1 7 8 -1 6 21 57 49 112 54 104
98 220 130 340 10 39 23 75 29 81 16 16 108 74 119 74 4 0 5 -26 1 -57z
m-2984 -213 c17 -52 58 -151 91 -219 l61 -124 -41 -39 c-23 -21 -45 -38 -49
-38 -10 0 -79 111 -116 186 -36 72 -93 241 -112 329 l-15 76 31 27 c18 15 44
35 58 44 l26 17 17 -82 c10 -45 32 -125 49 -177z m1480 -572 c25 -21 20 -23
-15 -7 -24 11 -25 15 -28 125 -2 70 1 115 7 117 6 2 11 -39 13 -107 2 -99 5
-113 23 -128z m-642 120 c0 -51 -4 -102 -9 -113 -6 -13 -9 13 -9 77 -1 53 -4
103 -7 112 -4 11 -1 16 10 16 14 0 16 -14 15 -92z m999 21 c56 -94 48 -114 -9
-24 -64 99 -62 95 -47 95 7 0 32 -32 56 -71z m147 -44 c0 -96 -3 -115 -15
-115 -13 0 -15 17 -12 102 3 107 6 128 19 128 4 0 8 -52 8 -115z m-985 35 c20
-12 31 -150 13 -150 -9 0 -13 19 -13 64 0 45 -5 69 -16 80 -17 18 -8 21 16 6z
m190 1 c0 -17 -15 -19 -35 -5 -18 13 -18 14 8 14 15 0 27 -4 27 -9z m180 -11
c20 -20 29 -93 12 -104 -4 -2 -8 11 -8 29 0 20 -9 47 -22 65 -25 34 -13 41 18
10z m200 -2 c21 -23 26 -63 10 -88 -7 -11 -10 -6 -10 21 0 21 -9 47 -21 63
-25 31 -8 35 21 4z m-489 -20 c-19 -52 28 -115 79 -103 19 4 21 3 10 -5 -42
-28 -110 10 -110 61 0 28 15 69 25 69 2 0 1 -10 -4 -22z m171 -3 c-6 -34 5
-72 28 -95 11 -11 15 -20 10 -20 -21 0 -60 49 -60 75 0 23 15 65 24 65 2 0 1
-11 -2 -25z m1442 -12 c-35 -56 -157 -194 -222 -251 -149 -132 -326 -239 -504
-306 -90 -33 -244 -76 -277 -76 -28 0 12 29 189 136 100 60 191 116 204 124
13 8 45 28 72 44 27 16 59 38 72 49 12 11 22 17 22 14 0 -4 8 0 18 7 9 8 76
56 147 107 72 51 132 95 135 98 3 3 14 11 25 17 49 27 70 39 75 44 8 8 55 28
58 25 2 -2 -4 -16 -14 -32z m-1790 -47 c-7 -19 25 -49 45 -41 12 5 13 3 4 -6
-19 -19 -63 -3 -63 25 0 12 3 26 7 29 10 11 13 8 7 -7z m747 -39 c-1 -12 -15
-9 -19 4 -3 6 1 10 8 8 6 -3 11 -8 11 -12z m143 -2 c3 -9 0 -15 -9 -15 -9 0
-12 6 -9 15 4 8 7 15 9 15 2 0 5 -7 9 -15z m-1004 -39 c0 -2 -9 -6 -20 -9 -11
-3 -20 -1 -20 4 0 5 9 9 20 9 11 0 20 -2 20 -4z m57 -296 c133 -52 381 -111
468 -111 17 0 16 -4 -10 -25 -56 -46 -118 -84 -138 -84 -112 0 -507 133 -507
171 0 7 98 79 107 79 1 0 37 -14 80 -30z"/>
</g>
</svg>
